<svg xmlns="http://www.w3.org/2000/svg" xml:space="preserve" width="2048" height="2048" style="shape-rendering:geometricPrecision;text-rendering:geometricPrecision;image-rendering:optimizeQuality;fill-rule:evenodd;clip-rule:evenodd"><defs><style>.fil0{fill:none}.fil3{fill:#e53935;fill-rule:nonzero}.fil2,.fil4,.fil5{fill:#ef5350;fill-rule:nonzero}.fil4,.fil5{fill:#f9a825}.fil4{fill:#fbc02d}</style></defs><g id="Layer_x0020_1"><path class="fil0" d="M0 0h2048v2048H0z"/><path class="fil0" d="M255.999 255.999h1536v1536h-1536z"/><path class="fil0" d="M256.001 256.001h1536v1536h-1536z"/><path class="fil0" d="M256.001 256.001h1536v1536h-1536z"/><g id="_347540600"><path id="_347542640" d="M1535.5 942.256c-19.572-123.386-84.247-232.264-176.356-310.122-91.19-77.078-209.345-123.639-337.298-123.639-127.553 0-244.201 46.252-334.05 122.87-91.347 77.89-155.167 187.073-174.806 310.891l-67.296-10.684c22.253-140.291 94.453-263.91 197.776-352.014 101.96-86.947 234.105-139.432 378.376-139.432 144.561 0 278.155 52.691 381.368 139.929 104.18 88.058 177.37 211.464 199.585 351.516l-67.298 10.684z" style="fill:#00796b;fill-rule:nonzero"/><path id="_347542496" class="fil2" d="M1024.24 1219.34c-66.149-.021-127.967-26.47-173.85-74.71l-5.525-5.7-6.878 3.991c-97.19 56.149-161.004 154.158-179.565 276.48l-.863 4.506 2.994 3.526c97.012 116.44 226.154 180.418 363.688 180.443V1219.34z"/><path id="_347542280" class="fil3" d="m1210.48 1142.92-6.912-3.991-5.493 5.7c-45.833 48.151-107.467 74.59-173.32 74.707l-.437.003h-.083v388.536H1024.388c137.372-.022 266.528-64 363.493-180.443l3.053-3.526-.872-4.506c-18.61-122.322-82.435-220.33-179.582-276.48z"/><path id="_347542160" class="fil3" d="m1024.24 1170.23.568-.008c120.012-.358 217.671-98.214 217.671-218.297 0-119.922-97.305-217.743-217.258-218.326-.328-.001-.653-.012-.981-.012v436.643z"/><path id="_347541944" class="fil2" d="m1024.15 1170.23.092-.001V733.586l-.092-.001c-120.312 0-218.147 98.058-218.147 218.339 0 120.304 97.836 218.307 218.147 218.307z"/><g><path id="_347541824" class="fil4" d="M479.312 1144.56c-40.284-.014-77.933-16.122-105.875-45.5l-3.365-3.47-4.19 2.43c-59.188 34.195-98.052 93.883-109.356 168.379l-.526 2.744 1.824 2.147c59.08 70.913 137.73 109.876 221.489 109.892V1144.56z"/><path id="_347541608" class="fil5" d="m592.737 1098.02-4.21-2.43-3.344 3.47c-27.913 29.325-65.449 45.426-105.553 45.498l-.267.002h-.051v236.622h.094c83.66-.013 162.317-38.976 221.37-109.892l1.86-2.147-.532-2.744c-11.334-74.495-50.204-134.184-109.368-168.379z"/><path id="_347541488" class="fil5" d="m479.312 1114.66.347-.005c73.088-.218 132.563-59.813 132.563-132.946 0-73.033-59.26-132.607-132.313-132.962-.2 0-.397-.008-.597-.008v265.921z"/><path id="_347541272" class="fil4" d="m479.256 1114.66.056-.001V848.738h-.056c-73.27 0-132.854 59.719-132.854 132.97 0 73.267 59.583 132.952 132.854 132.952z"/></g><g><path id="_347541152" class="fil4" d="M1568.68 1144.56c-40.285-.014-77.933-16.122-105.876-45.5l-3.365-3.47-4.19 2.43c-59.188 34.195-98.052 93.883-109.356 168.379l-.526 2.744 1.824 2.147c59.08 70.913 137.73 109.876 221.49 109.892V1144.56z"/><path id="_347540936" class="fil5" d="m1682.1 1098.02-4.21-2.43-3.346 3.47c-27.911 29.325-65.448 45.426-105.553 45.498l-.266.002h-.05v236.622h.093c83.66-.013 162.318-38.976 221.37-109.892l1.86-2.147-.532-2.744c-11.334-74.495-50.204-134.184-109.367-168.379z"/><path id="_347540816" class="fil5" d="m1568.68 1114.66.346-.005c73.088-.218 132.563-59.813 132.563-132.946 0-73.033-59.26-132.607-132.312-132.962-.2 0-.398-.008-.598-.008v265.921z"/><path id="_347540696" class="fil4" d="m1568.62 1114.66.057-.001V848.738h-.057c-73.27 0-132.854 59.719-132.854 132.97 0 73.267 59.583 132.952 132.854 132.952z"/></g></g></g></svg>